<?xml version="1.0" encoding="UTF-8" standalone="no"?>
<!-- Created with Inkscape (http://www.inkscape.org/) -->

<svg
   version="1.1"
   id="svg2"
   xml:space="preserve"
   width="768"
   height="690.66669"
   viewBox="0 0 768 690.66669"
   xmlns="http://www.w3.org/2000/svg"
   xmlns:svg="http://www.w3.org/2000/svg"><defs
     id="defs6"><clipPath
       clipPathUnits="userSpaceOnUse"
       id="clipPath18"><path
         d="M 0,0.08001158 H 576 V 518.00001 H 0 Z"
         id="path16" /></clipPath></defs><g
     id="g8"
     transform="matrix(1.3333333,0,0,-1.3333333,0,690.66667)"><g
       id="g10" /><g
       id="g12"><g
         id="g14"
         clip-path="url(#clipPath18)"><path
           d="M 0,518 H 576 V 0.08001158 H 0 Z"
           style="fill:#ffffff;fill-opacity:1;fill-rule:nonzero;stroke:none"
           id="path20" /></g></g><g
       id="g22"><path
         d="M 0,518 H 576 V -0.3750259 H 0 Z"
         style="fill:#ffffff;fill-opacity:1;fill-rule:nonzero;stroke:none"
         id="path24" /><g
         id="g26"
         transform="matrix(0.24,0,0,0.24,181.9328,-130.24)"><text
           transform="matrix(1,0,0,-1,0,2158)"
           style="font-variant:normal;font-weight:normal;font-size:112.5px;font-family:Courier;-inkscape-font-specification:Courier;writing-mode:lr-tb;fill:#d9d9d9;fill-opacity:1;fill-rule:nonzero;stroke:none"
           id="text30"><tspan
             x="0 66.667503 133.33501 200.0025 266.67001 333.33749"
             y="0"
             id="tspan28">ACGAAC</tspan></text></g><g
         id="g32"
         transform="matrix(0.24,0,0,0.24,277.9328,-130.24)"><text
           transform="matrix(1,0,0,-1,0,2158)"
           style="font-variant:normal;font-weight:normal;font-size:112.5px;font-family:Courier;-inkscape-font-specification:Courier;writing-mode:lr-tb;fill:#548235;fill-opacity:1;fill-rule:nonzero;stroke:none"
           id="text36"><tspan
             x="0"
             y="0"
             id="tspan34">C</tspan></text></g><g
         id="g38"
         transform="matrix(0.24,0,0,0.24,293.9328,-130.24)"><text
           transform="matrix(1,0,0,-1,0,2158)"
           style="font-variant:normal;font-weight:normal;font-size:112.5px;font-family:Courier;-inkscape-font-specification:Courier;writing-mode:lr-tb;fill:#000000;fill-opacity:1;fill-rule:nonzero;stroke:none"
           id="text42"><tspan
             x="0 66.667503"
             y="0"
             id="tspan40">GG</tspan></text></g><g
         id="g44"
         transform="matrix(0.24,0,0,0.24,325.9328,-130.24)"><text
           transform="matrix(1,0,0,-1,0,2158)"
           style="font-variant:normal;font-weight:normal;font-size:112.5px;font-family:Courier;-inkscape-font-specification:Courier;writing-mode:lr-tb;fill:#d9d9d9;fill-opacity:1;fill-rule:nonzero;stroke:none"
           id="text48"><tspan
             x="0 66.667503 133.33501 200.0025 266.67001 333.33749"
             y="0"
             id="tspan46">GAGCGA</tspan></text></g><g
         id="g50"
         transform="matrix(7.874016e-5,0,0,-7.874016e-5,144.6615,394.4893)"><path
           d="M 0,0 449640,1"
           style="fill:none;stroke:#000000;stroke-width:22225;stroke-linecap:butt;stroke-linejoin:miter;stroke-miterlimit:8;stroke-dasharray:none;stroke-opacity:1"
           id="path52" /></g><g
         id="g54"
         transform="matrix(7.874016e-5,0,0,-7.874016e-5,423.7161,394.4893)"><path
           d="M 0,0 473445,1"
           style="fill:none;stroke:#000000;stroke-width:22225;stroke-linecap:butt;stroke-linejoin:miter;stroke-miterlimit:8;stroke-dasharray:none;stroke-opacity:1"
           id="path56" /></g><g
         id="g58"
         transform="matrix(0.24,0,0,0.24,27.28272,-130)"><text
           transform="matrix(1,0,0,-1,0,2158)"
           style="font-variant:normal;font-weight:normal;font-size:75px;font-family:Courier;-inkscape-font-specification:Courier;writing-mode:lr-tb;fill:#000000;fill-opacity:1;fill-rule:nonzero;stroke:none"
           id="text62"><tspan
             x="0 44.790001 89.580002 134.37 179.16 223.95 268.73999 313.53"
             y="0"
             id="tspan60">(2/2)NGG</tspan></text></g><g
         id="g64"
         transform="matrix(0.24,0,0,0.24,14.81957,-33.27999)"><text
           transform="matrix(1,0,0,-1,0,2158)"
           style="font-variant:normal;font-weight:normal;font-size:75px;font-family:Calibri;-inkscape-font-specification:Calibri;writing-mode:lr-tb;fill:#000000;fill-opacity:1;fill-rule:nonzero;stroke:none"
           id="text68"><tspan
             x="0 39.314999 76.830002 116.445 152.38499 181.575 219.09 236.28 300.345 339.95999 364.95001 382.14001"
             y="0"
             id="tspan66">Rebase Motif</tspan></text></g><g
         id="g70"
         transform="matrix(0.24,0,0,0.24,496.5235,-33.27999)"><text
           transform="matrix(1,0,0,-1,0,2158)"
           style="font-variant:normal;font-weight:normal;font-size:75px;font-family:Calibri;-inkscape-font-specification:Calibri;writing-mode:lr-tb;fill:#000000;fill-opacity:1;fill-rule:nonzero;stroke:none"
           id="text74"><tspan
             x="0 40.102501 79.68 104.7075 121.935 151.08749 168.24001 192.4425"
             y="0"
             id="tspan72">Cut site</tspan></text></g><g
         id="g76"
         transform="matrix(7.874016e-5,0,0,-7.874016e-5,485.9613,512.6794)"><path
           d="M 0,0 1,5493354"
           style="fill:none;stroke:#000000;stroke-width:6350;stroke-linecap:butt;stroke-linejoin:miter;stroke-miterlimit:8;stroke-dasharray:none;stroke-opacity:1"
           id="path78" /></g><g
         id="g80"
         transform="matrix(7.874016e-5,0,0,-7.874016e-5,120.3613,509.0309)"><path
           d="M 0,0 1,5506879"
           style="fill:none;stroke:#000000;stroke-width:6350;stroke-linecap:butt;stroke-linejoin:miter;stroke-miterlimit:8;stroke-dasharray:none;stroke-opacity:1"
           id="path82" /></g><g
         id="g84"
         transform="matrix(-7.874016e-5,0,0,-7.874016e-5,558.4433,473.7697)"><path
           d="M 0,0 6843406,1"
           style="fill:none;stroke:#000000;stroke-width:6350;stroke-linecap:butt;stroke-linejoin:miter;stroke-miterlimit:8;stroke-dasharray:none;stroke-opacity:1"
           id="path86" /></g><g
         id="g88"
         transform="matrix(0.24,0,0,0.24,221.6091,-33.51999)"><text
           transform="matrix(1,0,0,-1,0,2158)"
           style="font-variant:normal;font-weight:normal;font-size:75px;font-family:Calibri;-inkscape-font-specification:Calibri;writing-mode:lr-tb;fill:#000000;fill-opacity:1;fill-rule:nonzero;stroke:none"
           id="text92"><tspan
             x="0 36.4575 67.364998 103.2975 163.23 202.83749 220.02 257.5275 274.70999 303.89249 341.39999 381.00751 420.61499 458.1225 497.73001 529.53748"
             y="0"
             id="tspan90">Example sequence</tspan></text></g><g
         id="g94"
         transform="matrix(0.24,0,0,0.24,182.1682,-174.4)"><text
           transform="matrix(1,0,0,-1,0,2158)"
           style="font-variant:normal;font-weight:normal;font-size:112.5px;font-family:Courier;-inkscape-font-specification:Courier;writing-mode:lr-tb;fill:#d9d9d9;fill-opacity:1;fill-rule:nonzero;stroke:none"
           id="text98"><tspan
             x="0 66.667503 133.33501 200.0025 266.67001 333.33749"
             y="0"
             id="tspan96">ACGAAC</tspan></text></g><g
         id="g100"
         transform="matrix(0.24,0,0,0.24,278.1682,-174.4)"><text
           transform="matrix(1,0,0,-1,0,2158)"
           style="font-variant:normal;font-weight:normal;font-size:112.5px;font-family:Courier;-inkscape-font-specification:Courier;writing-mode:lr-tb;fill:#548235;fill-opacity:1;fill-rule:nonzero;stroke:none"
           id="text104"><tspan
             x="0"
             y="0"
             id="tspan102">C</tspan></text></g><g
         id="g106"
         transform="matrix(0.24,0,0,0.24,294.1682,-174.4)"><text
           transform="matrix(1,0,0,-1,0,2158)"
           style="font-variant:normal;font-weight:normal;font-size:112.5px;font-family:Courier;-inkscape-font-specification:Courier;writing-mode:lr-tb;fill:#000000;fill-opacity:1;fill-rule:nonzero;stroke:none"
           id="text110"><tspan
             x="0 66.667503"
             y="0"
             id="tspan108">GG</tspan></text></g><g
         id="g112"
         transform="matrix(0.24,0,0,0.24,326.1682,-174.4)"><text
           transform="matrix(1,0,0,-1,0,2158)"
           style="font-variant:normal;font-weight:normal;font-size:112.5px;font-family:Courier;-inkscape-font-specification:Courier;writing-mode:lr-tb;fill:#d9d9d9;fill-opacity:1;fill-rule:nonzero;stroke:none"
           id="text116"><tspan
             x="0 66.667503 133.33501 200.0025 266.67001 333.33749"
             y="0"
             id="tspan114">GAGCGA</tspan></text></g><g
         id="g118"
         transform="matrix(7.874016e-5,0,0,-7.874016e-5,144.8968,350.2418)"><path
           d="M 0,0 449640,1"
           style="fill:none;stroke:#000000;stroke-width:22225;stroke-linecap:butt;stroke-linejoin:miter;stroke-miterlimit:8;stroke-dasharray:none;stroke-opacity:1"
           id="path120" /></g><g
         id="g122"
         transform="matrix(7.874016e-5,0,0,-7.874016e-5,423.9514,350.2418)"><path
           d="M 0,0 473445,1"
           style="fill:none;stroke:#000000;stroke-width:22225;stroke-linecap:butt;stroke-linejoin:miter;stroke-miterlimit:8;stroke-dasharray:none;stroke-opacity:1"
           id="path124" /></g><path
         d="m 268.421,374.2801 -7.8261,-13.4933 -7.8261,13.4933 z"
         style="fill:#ff0000;fill-opacity:1;fill-rule:nonzero;stroke:none"
         id="path126" /><g
         id="g128"
         transform="matrix(-7.874016e-5,0,0,7.874016e-5,268.421,360.7868)"><path
           d="M 0,171365 99391.5,0 198783,171365 Z"
           style="fill:none;stroke:#ff0000;stroke-width:12700;stroke-linecap:butt;stroke-linejoin:miter;stroke-miterlimit:8;stroke-dasharray:none;stroke-opacity:1"
           id="path130" /></g><g
         id="g132"
         transform="matrix(0.24,0,0,0.24,181.3042,-216.64)"><text
           transform="matrix(1,0,0,-1,0,2158)"
           style="font-variant:normal;font-weight:normal;font-size:112.5px;font-family:Courier;-inkscape-font-specification:Courier;writing-mode:lr-tb;fill:#d9d9d9;fill-opacity:1;fill-rule:nonzero;stroke:none"
           id="text136"><tspan
             x="0 66.667503 133.33501 200.0025 266.67001 333.33749"
             y="0"
             id="tspan134">ACGAAC</tspan></text></g><g
         id="g138"
         transform="matrix(0.24,0,0,0.24,277.3042,-216.64)"><text
           transform="matrix(1,0,0,-1,0,2158)"
           style="font-variant:normal;font-weight:normal;font-size:112.5px;font-family:Courier;-inkscape-font-specification:Courier;writing-mode:lr-tb;fill:#548235;fill-opacity:1;fill-rule:nonzero;stroke:none"
           id="text142"><tspan
             x="0"
             y="0"
             id="tspan140">C</tspan></text></g><g
         id="g144"
         transform="matrix(0.24,0,0,0.24,293.3043,-216.64)"><text
           transform="matrix(1,0,0,-1,0,2158)"
           style="font-variant:normal;font-weight:normal;font-size:112.5px;font-family:Courier;-inkscape-font-specification:Courier;writing-mode:lr-tb;fill:#000000;fill-opacity:1;fill-rule:nonzero;stroke:none"
           id="text148"><tspan
             x="0 66.667503"
             y="0"
             id="tspan146">GG</tspan></text></g><g
         id="g150"
         transform="matrix(0.24,0,0,0.24,325.3042,-216.64)"><text
           transform="matrix(1,0,0,-1,0,2158)"
           style="font-variant:normal;font-weight:normal;font-size:112.5px;font-family:Courier;-inkscape-font-specification:Courier;writing-mode:lr-tb;fill:#d9d9d9;fill-opacity:1;fill-rule:nonzero;stroke:none"
           id="text154"><tspan
             x="0 66.667503 133.33501 200.0025 266.67001 333.33749"
             y="0"
             id="tspan152">GAGCGA</tspan></text></g><g
         id="g156"
         transform="matrix(7.874016e-5,0,0,-7.874016e-5,144.0329,307.9852)"><path
           d="M 0,0 449640,1"
           style="fill:none;stroke:#000000;stroke-width:22225;stroke-linecap:butt;stroke-linejoin:miter;stroke-miterlimit:8;stroke-dasharray:none;stroke-opacity:1"
           id="path158" /></g><g
         id="g160"
         transform="matrix(7.874016e-5,0,0,-7.874016e-5,423.0875,307.9852)"><path
           d="M 0,0 473445,1"
           style="fill:none;stroke:#000000;stroke-width:22225;stroke-linecap:butt;stroke-linejoin:miter;stroke-miterlimit:8;stroke-dasharray:none;stroke-opacity:1"
           id="path162" /></g><path
         d="m 285.5571,332.8235 -7.8261,-13.4933 -7.8261,13.4933 z"
         style="fill:#ff0000;fill-opacity:1;fill-rule:nonzero;stroke:none"
         id="path164" /><g
         id="g166"
         transform="matrix(-7.874016e-5,0,0,7.874016e-5,285.5571,319.3302)"><path
           d="M 0,171365 99391.5,0 198783,171365 Z"
           style="fill:none;stroke:#ff0000;stroke-width:12700;stroke-linecap:butt;stroke-linejoin:miter;stroke-miterlimit:8;stroke-dasharray:none;stroke-opacity:1"
           id="path168" /></g><path
         d="m 251.9691,420.9469 -7.8261,-13.4934 -7.8261,13.4934 z"
         style="fill:#ff0000;fill-opacity:1;fill-rule:nonzero;stroke:none"
         id="path170" /><g
         id="g172"
         transform="matrix(-7.874016e-5,0,0,7.874016e-5,251.9691,407.4535)"><path
           d="M 0,171365 99391.5,0 198783,171365 Z"
           style="fill:none;stroke:#ff0000;stroke-width:12700;stroke-linecap:butt;stroke-linejoin:miter;stroke-miterlimit:8;stroke-dasharray:none;stroke-opacity:1"
           id="path174" /></g><g
         id="g176"
         transform="matrix(0.24,0,0,0.24,182.219,-259.84)"><text
           transform="matrix(1,0,0,-1,0,2158)"
           style="font-variant:normal;font-weight:normal;font-size:112.5px;font-family:Courier;-inkscape-font-specification:Courier;writing-mode:lr-tb;fill:#d9d9d9;fill-opacity:1;fill-rule:nonzero;stroke:none"
           id="text180"><tspan
             x="0 66.667503 133.33501 200.0025 266.67001 333.33749"
             y="0"
             id="tspan178">ACGAAC</tspan></text></g><g
         id="g182"
         transform="matrix(0.24,0,0,0.24,278.219,-259.84)"><text
           transform="matrix(1,0,0,-1,0,2158)"
           style="font-variant:normal;font-weight:normal;font-size:112.5px;font-family:Courier;-inkscape-font-specification:Courier;writing-mode:lr-tb;fill:#548235;fill-opacity:1;fill-rule:nonzero;stroke:none"
           id="text186"><tspan
             x="0"
             y="0"
             id="tspan184">C</tspan></text></g><g
         id="g188"
         transform="matrix(0.24,0,0,0.24,294.219,-259.84)"><text
           transform="matrix(1,0,0,-1,0,2158)"
           style="font-variant:normal;font-weight:normal;font-size:112.5px;font-family:Courier;-inkscape-font-specification:Courier;writing-mode:lr-tb;fill:#000000;fill-opacity:1;fill-rule:nonzero;stroke:none"
           id="text192"><tspan
             x="0 66.667503"
             y="0"
             id="tspan190">GG</tspan></text></g><g
         id="g194"
         transform="matrix(0.24,0,0,0.24,326.219,-259.84)"><text
           transform="matrix(1,0,0,-1,0,2158)"
           style="font-variant:normal;font-weight:normal;font-size:112.5px;font-family:Courier;-inkscape-font-specification:Courier;writing-mode:lr-tb;fill:#d9d9d9;fill-opacity:1;fill-rule:nonzero;stroke:none"
           id="text198"><tspan
             x="0 66.667503 133.33501 200.0025 266.67001 333.33749"
             y="0"
             id="tspan196">GAGCGA</tspan></text></g><g
         id="g200"
         transform="matrix(7.874016e-5,0,0,-7.874016e-5,144.9476,264.6784)"><path
           d="M 0,0 449640,1"
           style="fill:none;stroke:#000000;stroke-width:22225;stroke-linecap:butt;stroke-linejoin:miter;stroke-miterlimit:8;stroke-dasharray:none;stroke-opacity:1"
           id="path202" /></g><g
         id="g204"
         transform="matrix(7.874016e-5,0,0,-7.874016e-5,424.0022,264.6784)"><path
           d="M 0,0 473445,1"
           style="fill:none;stroke:#000000;stroke-width:22225;stroke-linecap:butt;stroke-linejoin:miter;stroke-miterlimit:8;stroke-dasharray:none;stroke-opacity:1"
           id="path206" /></g><g
         id="g208"
         transform="matrix(0.24,0,0,0.24,181.9328,-302.8)"><text
           transform="matrix(1,0,0,-1,0,2158)"
           style="font-variant:normal;font-weight:normal;font-size:112.5px;font-family:Courier;-inkscape-font-specification:Courier;writing-mode:lr-tb;fill:#d9d9d9;fill-opacity:1;fill-rule:nonzero;stroke:none"
           id="text212"><tspan
             x="0 66.667503 133.33501 200.0025 266.67001 333.33749"
             y="0"
             id="tspan210">ACGAAC</tspan></text></g><g
         id="g214"
         transform="matrix(0.24,0,0,0.24,277.9328,-302.8)"><text
           transform="matrix(1,0,0,-1,0,2158)"
           style="font-variant:normal;font-weight:normal;font-size:112.5px;font-family:Courier;-inkscape-font-specification:Courier;writing-mode:lr-tb;fill:#548235;fill-opacity:1;fill-rule:nonzero;stroke:none"
           id="text218"><tspan
             x="0"
             y="0"
             id="tspan216">C</tspan></text></g><g
         id="g220"
         transform="matrix(0.24,0,0,0.24,293.9328,-302.8)"><text
           transform="matrix(1,0,0,-1,0,2158)"
           style="font-variant:normal;font-weight:normal;font-size:112.5px;font-family:Courier;-inkscape-font-specification:Courier;writing-mode:lr-tb;fill:#000000;fill-opacity:1;fill-rule:nonzero;stroke:none"
           id="text224"><tspan
             x="0 66.667503"
             y="0"
             id="tspan222">GG</tspan></text></g><g
         id="g226"
         transform="matrix(0.24,0,0,0.24,325.9328,-302.8)"><text
           transform="matrix(1,0,0,-1,0,2158)"
           style="font-variant:normal;font-weight:normal;font-size:112.5px;font-family:Courier;-inkscape-font-specification:Courier;writing-mode:lr-tb;fill:#d9d9d9;fill-opacity:1;fill-rule:nonzero;stroke:none"
           id="text230"><tspan
             x="0 66.667503 133.33501 200.0025 266.67001 333.33749"
             y="0"
             id="tspan228">GAGCGA</tspan></text></g><g
         id="g232"
         transform="matrix(7.874016e-5,0,0,-7.874016e-5,144.6615,221.9393)"><path
           d="M 0,0 449640,1"
           style="fill:none;stroke:#000000;stroke-width:22225;stroke-linecap:butt;stroke-linejoin:miter;stroke-miterlimit:8;stroke-dasharray:none;stroke-opacity:1"
           id="path234" /></g><g
         id="g236"
         transform="matrix(7.874016e-5,0,0,-7.874016e-5,423.7161,221.9393)"><path
           d="M 0,0 473445,1"
           style="fill:none;stroke:#000000;stroke-width:22225;stroke-linecap:butt;stroke-linejoin:miter;stroke-miterlimit:8;stroke-dasharray:none;stroke-opacity:1"
           id="path238" /></g><path
         d="m 318.1856,246.1305 -7.8261,-13.4933 -7.8261,13.4933 z"
         style="fill:#ff0000;fill-opacity:1;fill-rule:nonzero;stroke:none"
         id="path240" /><g
         id="g242"
         transform="matrix(-7.874016e-5,0,0,7.874016e-5,318.1856,232.6372)"><path
           d="M 0,171365 99391.5,0 198783,171365 Z"
           style="fill:none;stroke:#ff0000;stroke-width:12700;stroke-linecap:butt;stroke-linejoin:miter;stroke-miterlimit:8;stroke-dasharray:none;stroke-opacity:1"
           id="path244" /></g><g
         id="g246"
         transform="matrix(0.24,0,0,0.24,181.0689,-345.04)"><text
           transform="matrix(1,0,0,-1,0,2158)"
           style="font-variant:normal;font-weight:normal;font-size:112.5px;font-family:Courier;-inkscape-font-specification:Courier;writing-mode:lr-tb;fill:#d9d9d9;fill-opacity:1;fill-rule:nonzero;stroke:none"
           id="text250"><tspan
             x="0 66.667503 133.33501 200.0025 266.67001 333.33749"
             y="0"
             id="tspan248">ACGAAC</tspan></text></g><g
         id="g252"
         transform="matrix(0.24,0,0,0.24,277.0689,-345.04)"><text
           transform="matrix(1,0,0,-1,0,2158)"
           style="font-variant:normal;font-weight:normal;font-size:112.5px;font-family:Courier;-inkscape-font-specification:Courier;writing-mode:lr-tb;fill:#548235;fill-opacity:1;fill-rule:nonzero;stroke:none"
           id="text256"><tspan
             x="0"
             y="0"
             id="tspan254">C</tspan></text></g><g
         id="g258"
         transform="matrix(0.24,0,0,0.24,293.0689,-345.04)"><text
           transform="matrix(1,0,0,-1,0,2158)"
           style="font-variant:normal;font-weight:normal;font-size:112.5px;font-family:Courier;-inkscape-font-specification:Courier;writing-mode:lr-tb;fill:#000000;fill-opacity:1;fill-rule:nonzero;stroke:none"
           id="text262"><tspan
             x="0 66.667503"
             y="0"
             id="tspan260">GG</tspan></text></g><g
         id="g264"
         transform="matrix(0.24,0,0,0.24,325.0689,-345.04)"><text
           transform="matrix(1,0,0,-1,0,2158)"
           style="font-variant:normal;font-weight:normal;font-size:112.5px;font-family:Courier;-inkscape-font-specification:Courier;writing-mode:lr-tb;fill:#d9d9d9;fill-opacity:1;fill-rule:nonzero;stroke:none"
           id="text268"><tspan
             x="0 66.667503 133.33501 200.0025 266.67001 333.33749"
             y="0"
             id="tspan266">GAGCGA</tspan></text></g><g
         id="g270"
         transform="matrix(7.874016e-5,0,0,-7.874016e-5,143.7976,179.6824)"><path
           d="M 0,0 449640,1"
           style="fill:none;stroke:#000000;stroke-width:22225;stroke-linecap:butt;stroke-linejoin:miter;stroke-miterlimit:8;stroke-dasharray:none;stroke-opacity:1"
           id="path272" /></g><g
         id="g274"
         transform="matrix(7.874016e-5,0,0,-7.874016e-5,422.8521,179.6824)"><path
           d="M 0,0 473445,1"
           style="fill:none;stroke:#000000;stroke-width:22225;stroke-linecap:butt;stroke-linejoin:miter;stroke-miterlimit:8;stroke-dasharray:none;stroke-opacity:1"
           id="path276" /></g><path
         d="m 333.838,205.1649 -7.8261,-13.4933 -7.8261,13.4933 z"
         style="fill:#ff0000;fill-opacity:1;fill-rule:nonzero;stroke:none"
         id="path278" /><g
         id="g280"
         transform="matrix(-7.874016e-5,0,0,7.874016e-5,333.838,191.6716)"><path
           d="M 0,171365 99391.5,0 198783,171365 Z"
           style="fill:none;stroke:#ff0000;stroke-width:12700;stroke-linecap:butt;stroke-linejoin:miter;stroke-miterlimit:8;stroke-dasharray:none;stroke-opacity:1"
           id="path282" /></g><path
         d="m 303.0742,290.4745 -7.8261,-13.4933 -7.8261,13.4933 z"
         style="fill:#ff0000;fill-opacity:1;fill-rule:nonzero;stroke:none"
         id="path284" /><g
         id="g286"
         transform="matrix(-7.874016e-5,0,0,7.874016e-5,303.0742,276.9812)"><path
           d="M 0,171365 99391.5,0 198783,171365 Z"
           style="fill:none;stroke:#ff0000;stroke-width:12700;stroke-linecap:butt;stroke-linejoin:miter;stroke-miterlimit:8;stroke-dasharray:none;stroke-opacity:1"
           id="path288" /></g><g
         id="g290"
         transform="matrix(0.24,0,0,0.24,181.3546,-387.76)"><text
           transform="matrix(1,0,0,-1,0,2158)"
           style="font-variant:normal;font-weight:normal;font-size:112.5px;font-family:Courier;-inkscape-font-specification:Courier;writing-mode:lr-tb;fill:#d9d9d9;fill-opacity:1;fill-rule:nonzero;stroke:none"
           id="text294"><tspan
             x="0 66.667503 133.33501 200.0025 266.67001 333.33749"
             y="0"
             id="tspan292">ACGAAC</tspan></text></g><g
         id="g296"
         transform="matrix(0.24,0,0,0.24,277.3546,-387.76)"><text
           transform="matrix(1,0,0,-1,0,2158)"
           style="font-variant:normal;font-weight:normal;font-size:112.5px;font-family:Courier;-inkscape-font-specification:Courier;writing-mode:lr-tb;fill:#548235;fill-opacity:1;fill-rule:nonzero;stroke:none"
           id="text300"><tspan
             x="0"
             y="0"
             id="tspan298">C</tspan></text></g><g
         id="g302"
         transform="matrix(0.24,0,0,0.24,293.3546,-387.76)"><text
           transform="matrix(1,0,0,-1,0,2158)"
           style="font-variant:normal;font-weight:normal;font-size:112.5px;font-family:Courier;-inkscape-font-specification:Courier;writing-mode:lr-tb;fill:#000000;fill-opacity:1;fill-rule:nonzero;stroke:none"
           id="text306"><tspan
             x="0 66.667503"
             y="0"
             id="tspan304">GG</tspan></text></g><g
         id="g308"
         transform="matrix(0.24,0,0,0.24,325.3546,-387.76)"><text
           transform="matrix(1,0,0,-1,0,2158)"
           style="font-variant:normal;font-weight:normal;font-size:112.5px;font-family:Courier;-inkscape-font-specification:Courier;writing-mode:lr-tb;fill:#d9d9d9;fill-opacity:1;fill-rule:nonzero;stroke:none"
           id="text312"><tspan
             x="0 66.667503 133.33501 200.0025 266.67001 333.33749"
             y="0"
             id="tspan310">GAGCGA</tspan></text></g><g
         id="g314"
         transform="matrix(7.874016e-5,0,0,-7.874016e-5,144.0832,136.8583)"><path
           d="M 0,0 449640,1"
           style="fill:none;stroke:#000000;stroke-width:22225;stroke-linecap:butt;stroke-linejoin:miter;stroke-miterlimit:8;stroke-dasharray:none;stroke-opacity:1"
           id="path316" /></g><g
         id="g318"
         transform="matrix(7.874016e-5,0,0,-7.874016e-5,423.1378,136.8583)"><path
           d="M 0,0 473445,1"
           style="fill:none;stroke:#000000;stroke-width:22225;stroke-linecap:butt;stroke-linejoin:miter;stroke-miterlimit:8;stroke-dasharray:none;stroke-opacity:1"
           id="path320" /></g><g
         id="g322"
         transform="matrix(0.24,0,0,0.24,181.0689,-430.48)"><text
           transform="matrix(1,0,0,-1,0,2158)"
           style="font-variant:normal;font-weight:normal;font-size:112.5px;font-family:Courier;-inkscape-font-specification:Courier;writing-mode:lr-tb;fill:#d9d9d9;fill-opacity:1;fill-rule:nonzero;stroke:none"
           id="text326"><tspan
             x="0 66.667503 133.33501 200.0025 266.67001 333.33749"
             y="0"
             id="tspan324">ACGAAC</tspan></text></g><g
         id="g328"
         transform="matrix(0.24,0,0,0.24,277.0689,-430.48)"><text
           transform="matrix(1,0,0,-1,0,2158)"
           style="font-variant:normal;font-weight:normal;font-size:112.5px;font-family:Courier;-inkscape-font-specification:Courier;writing-mode:lr-tb;fill:#548235;fill-opacity:1;fill-rule:nonzero;stroke:none"
           id="text332"><tspan
             x="0"
             y="0"
             id="tspan330">C</tspan></text></g><g
         id="g334"
         transform="matrix(0.24,0,0,0.24,293.0689,-430.48)"><text
           transform="matrix(1,0,0,-1,0,2158)"
           style="font-variant:normal;font-weight:normal;font-size:112.5px;font-family:Courier;-inkscape-font-specification:Courier;writing-mode:lr-tb;fill:#000000;fill-opacity:1;fill-rule:nonzero;stroke:none"
           id="text338"><tspan
             x="0 66.667503"
             y="0"
             id="tspan336">GG</tspan></text></g><g
         id="g340"
         transform="matrix(0.24,0,0,0.24,325.0689,-430.48)"><text
           transform="matrix(1,0,0,-1,0,2158)"
           style="font-variant:normal;font-weight:normal;font-size:112.5px;font-family:Courier;-inkscape-font-specification:Courier;writing-mode:lr-tb;fill:#d9d9d9;fill-opacity:1;fill-rule:nonzero;stroke:none"
           id="text344"><tspan
             x="0 66.667503 133.33501 200.0025 266.67001 333.33749"
             y="0"
             id="tspan342">GAGCGA</tspan></text></g><g
         id="g346"
         transform="matrix(7.874016e-5,0,0,-7.874016e-5,143.7976,94.11923)"><path
           d="M 0,0 449640,1"
           style="fill:none;stroke:#000000;stroke-width:22225;stroke-linecap:butt;stroke-linejoin:miter;stroke-miterlimit:8;stroke-dasharray:none;stroke-opacity:1"
           id="path348" /></g><g
         id="g350"
         transform="matrix(7.874016e-5,0,0,-7.874016e-5,422.8521,94.11923)"><path
           d="M 0,0 473445,1"
           style="fill:none;stroke:#000000;stroke-width:22225;stroke-linecap:butt;stroke-linejoin:miter;stroke-miterlimit:8;stroke-dasharray:none;stroke-opacity:1"
           id="path352" /></g><path
         d="m 363.7642,118.1575 -7.8261,-13.4933 -7.8261,13.4933 z"
         style="fill:#ff0000;fill-opacity:1;fill-rule:nonzero;stroke:none"
         id="path354" /><g
         id="g356"
         transform="matrix(-7.874016e-5,0,0,7.874016e-5,363.7642,104.6642)"><path
           d="M 0,171365 99391.5,0 198783,171365 Z"
           style="fill:none;stroke:#ff0000;stroke-width:12700;stroke-linecap:butt;stroke-linejoin:miter;stroke-miterlimit:8;stroke-dasharray:none;stroke-opacity:1"
           id="path358" /></g><path
         d="m 348.912,162.8918 -7.8261,-13.4933 -7.8261,13.4933 z"
         style="fill:#ff0000;fill-opacity:1;fill-rule:nonzero;stroke:none"
         id="path360" /><g
         id="g362"
         transform="matrix(-7.874016e-5,0,0,7.874016e-5,348.912,149.3985)"><path
           d="M 0,171365 99391.5,0 198783,171365 Z"
           style="fill:none;stroke:#ff0000;stroke-width:12700;stroke-linecap:butt;stroke-linejoin:miter;stroke-miterlimit:8;stroke-dasharray:none;stroke-opacity:1"
           id="path364" /></g><g
         id="g366"
         transform="matrix(0.24,0,0,0.24,27.28283,-172.72)"><text
           transform="matrix(1,0,0,-1,0,2158)"
           style="font-variant:normal;font-weight:normal;font-size:75px;font-family:Courier;-inkscape-font-specification:Courier;writing-mode:lr-tb;fill:#000000;fill-opacity:1;fill-rule:nonzero;stroke:none"
           id="text370"><tspan
             x="0 44.790001 89.580002 134.37 179.16 223.95 268.73999 313.53"
             y="0"
             id="tspan368">(1/1)NGG</tspan></text></g><g
         id="g372"
         transform="matrix(0.24,0,0,0.24,70.49267,-215.2)"><text
           transform="matrix(1,0,0,-1,0,2158)"
           style="font-variant:normal;font-weight:normal;font-size:75px;font-family:Courier;-inkscape-font-specification:Courier;writing-mode:lr-tb;fill:#000000;fill-opacity:1;fill-rule:nonzero;stroke:none"
           id="text376"><tspan
             x="0 44.790001 89.580002 134.37"
             y="0"
             id="tspan374">^NGG</tspan></text></g><g
         id="g378"
         transform="matrix(0.24,0,0,0.24,70.49267,-257.92)"><text
           transform="matrix(1,0,0,-1,0,2158)"
           style="font-variant:normal;font-weight:normal;font-size:75px;font-family:Courier;-inkscape-font-specification:Courier;writing-mode:lr-tb;fill:#000000;fill-opacity:1;fill-rule:nonzero;stroke:none"
           id="text382"><tspan
             x="0 44.790001 89.580002 134.37"
             y="0"
             id="tspan380">N^GG</tspan></text></g><g
         id="g384"
         transform="matrix(0.24,0,0,0.24,70.49267,-300.4)"><text
           transform="matrix(1,0,0,-1,0,2158)"
           style="font-variant:normal;font-weight:normal;font-size:75px;font-family:Courier;-inkscape-font-specification:Courier;writing-mode:lr-tb;fill:#000000;fill-opacity:1;fill-rule:nonzero;stroke:none"
           id="text388"><tspan
             x="0 44.790001 89.580002 134.37"
             y="0"
             id="tspan386">NG^G</tspan></text></g><g
         id="g390"
         transform="matrix(0.24,0,0,0.24,70.49267,-343.12)"><text
           transform="matrix(1,0,0,-1,0,2158)"
           style="font-variant:normal;font-weight:normal;font-size:75px;font-family:Courier;-inkscape-font-specification:Courier;writing-mode:lr-tb;fill:#000000;fill-opacity:1;fill-rule:nonzero;stroke:none"
           id="text394"><tspan
             x="0 44.790001 89.580002 134.37"
             y="0"
             id="tspan392">NGG^</tspan></text></g><g
         id="g396"
         transform="matrix(0.24,0,0,0.24,27.28283,-385.6)"><text
           transform="matrix(1,0,0,-1,0,2158)"
           style="font-variant:normal;font-weight:normal;font-size:75px;font-family:Courier;-inkscape-font-specification:Courier;writing-mode:lr-tb;fill:#000000;fill-opacity:1;fill-rule:nonzero;stroke:none"
           id="text400"><tspan
             x="0 44.790001 89.580002 134.37 179.16 223.95 268.73999 313.53"
             y="0"
             id="tspan398">NGG(1/1)</tspan></text></g><g
         id="g402"
         transform="matrix(0.24,0,0,0.24,27.28283,-428.32)"><text
           transform="matrix(1,0,0,-1,0,2158)"
           style="font-variant:normal;font-weight:normal;font-size:75px;font-family:Courier;-inkscape-font-specification:Courier;writing-mode:lr-tb;fill:#000000;fill-opacity:1;fill-rule:nonzero;stroke:none"
           id="text406"><tspan
             x="0 44.790001 89.580002 134.37 179.16 223.95 268.73999 313.53"
             y="0"
             id="tspan404">NGG(2/2)</tspan></text></g><g
         id="g408"
         transform="matrix(0.24,0,0,0.24,517.3655,-129.28)"><text
           transform="matrix(1,0,0,-1,0,2158)"
           style="font-variant:normal;font-weight:normal;font-size:75px;font-family:Calibri;-inkscape-font-specification:Calibri;writing-mode:lr-tb;fill:#000000;fill-opacity:1;fill-rule:nonzero;stroke:none"
           id="text412"><tspan
             x="0"
             y="0"
             id="tspan410">-</tspan></text></g><g
         id="g414"
         transform="matrix(0.24,0,0,0.24,522.8655,-129.28)"><text
           transform="matrix(1,0,0,-1,0,2158)"
           style="font-variant:normal;font-weight:normal;font-size:75px;font-family:Calibri;-inkscape-font-specification:Calibri;writing-mode:lr-tb;fill:#000000;fill-opacity:1;fill-rule:nonzero;stroke:none"
           id="text418"><tspan
             x="0"
             y="0"
             id="tspan416">2</tspan></text></g><g
         id="g420"
         transform="matrix(0.24,0,0,0.24,517.3655,-172)"><text
           transform="matrix(1,0,0,-1,0,2158)"
           style="font-variant:normal;font-weight:normal;font-size:75px;font-family:Calibri;-inkscape-font-specification:Calibri;writing-mode:lr-tb;fill:#000000;fill-opacity:1;fill-rule:nonzero;stroke:none"
           id="text424"><tspan
             x="0"
             y="0"
             id="tspan422">-</tspan></text></g><g
         id="g426"
         transform="matrix(0.24,0,0,0.24,522.8655,-172)"><text
           transform="matrix(1,0,0,-1,0,2158)"
           style="font-variant:normal;font-weight:normal;font-size:75px;font-family:Calibri;-inkscape-font-specification:Calibri;writing-mode:lr-tb;fill:#000000;fill-opacity:1;fill-rule:nonzero;stroke:none"
           id="text430"><tspan
             x="0"
             y="0"
             id="tspan428">1</tspan></text></g><g
         id="g432"
         transform="matrix(0.24,0,0,0.24,520.1157,-214.48)"><text
           transform="matrix(1,0,0,-1,0,2158)"
           style="font-variant:normal;font-weight:normal;font-size:75px;font-family:Calibri;-inkscape-font-specification:Calibri;writing-mode:lr-tb;fill:#000000;fill-opacity:1;fill-rule:nonzero;stroke:none"
           id="text436"><tspan
             x="0"
             y="0"
             id="tspan434">0</tspan></text></g><g
         id="g438"
         transform="matrix(0.24,0,0,0.24,520.1157,-257.2)"><text
           transform="matrix(1,0,0,-1,0,2158)"
           style="font-variant:normal;font-weight:normal;font-size:75px;font-family:Calibri;-inkscape-font-specification:Calibri;writing-mode:lr-tb;fill:#000000;fill-opacity:1;fill-rule:nonzero;stroke:none"
           id="text442"><tspan
             x="0"
             y="0"
             id="tspan440">1</tspan></text></g><g
         id="g444"
         transform="matrix(0.24,0,0,0.24,520.1157,-299.68)"><text
           transform="matrix(1,0,0,-1,0,2158)"
           style="font-variant:normal;font-weight:normal;font-size:75px;font-family:Calibri;-inkscape-font-specification:Calibri;writing-mode:lr-tb;fill:#000000;fill-opacity:1;fill-rule:nonzero;stroke:none"
           id="text448"><tspan
             x="0"
             y="0"
             id="tspan446">2</tspan></text></g><g
         id="g450"
         transform="matrix(0.24,0,0,0.24,520.1157,-342.4)"><text
           transform="matrix(1,0,0,-1,0,2158)"
           style="font-variant:normal;font-weight:normal;font-size:75px;font-family:Calibri;-inkscape-font-specification:Calibri;writing-mode:lr-tb;fill:#000000;fill-opacity:1;fill-rule:nonzero;stroke:none"
           id="text454"><tspan
             x="0"
             y="0"
             id="tspan452">3</tspan></text></g><g
         id="g456"
         transform="matrix(0.24,0,0,0.24,520.1157,-385.12)"><text
           transform="matrix(1,0,0,-1,0,2158)"
           style="font-variant:normal;font-weight:normal;font-size:75px;font-family:Calibri;-inkscape-font-specification:Calibri;writing-mode:lr-tb;fill:#000000;fill-opacity:1;fill-rule:nonzero;stroke:none"
           id="text460"><tspan
             x="0"
             y="0"
             id="tspan458">4</tspan></text></g><g
         id="g462"
         transform="matrix(0.24,0,0,0.24,520.1157,-427.6)"><text
           transform="matrix(1,0,0,-1,0,2158)"
           style="font-variant:normal;font-weight:normal;font-size:75px;font-family:Calibri;-inkscape-font-specification:Calibri;writing-mode:lr-tb;fill:#000000;fill-opacity:1;fill-rule:nonzero;stroke:none"
           id="text466"><tspan
             x="0"
             y="0"
             id="tspan464">5</tspan></text></g><path
         d="m 286.9318,79.25388 10e-5,-23.28642 h -2.75 l -10e-5,23.28641 z m 2.7501,-21.91141 -4.125,-8.25001 -4.125,8.24999 z"
         style="fill:#548235;fill-opacity:1;fill-rule:nonzero;stroke:none"
         id="path468" /><g
         id="g470"
         transform="matrix(0.24,0,0,0.24,255.5567,-492.64)"><text
           transform="matrix(1,0,0,-1,0,2158)"
           style="font-variant:normal;font-weight:normal;font-size:75px;font-family:Calibri;-inkscape-font-specification:Calibri;writing-mode:lr-tb;fill:#548235;fill-opacity:1;fill-rule:nonzero;stroke:none"
           id="text474"><tspan
             x="0 33.022499 76.245003 140.3175 157.515 186.71249 203.91 228.0825"
             y="0"
             id="tspan472">PAM site</tspan></text></g><g
         id="g476"
         transform="matrix(0.24,0,0,0.24,145.6315,-72.15999)"><text
           transform="matrix(1,0,0,-1,0,2158)"
           style="font-variant:normal;font-weight:normal;font-size:79.1667px;font-family:Calibri;-inkscape-font-specification:Calibri;writing-mode:lr-tb;fill:#000000;fill-opacity:1;fill-rule:nonzero;stroke:none"
           id="text480"><tspan
             x="0 40.62833"
             y="0"
             id="tspan478">5’</tspan></text></g><g
         id="g482"
         transform="matrix(0.24,0,0,0.24,450.877,-71.91999)"><text
           transform="matrix(1,0,0,-1,0,2158)"
           style="font-variant:normal;font-weight:normal;font-size:79.1667px;font-family:Calibri;-inkscape-font-specification:Calibri;writing-mode:lr-tb;fill:#000000;fill-opacity:1;fill-rule:nonzero;stroke:none"
           id="text486"><tspan
             x="0 40.62833"
             y="0"
             id="tspan484">3’</tspan></text></g><g
         id="g488"
         transform="matrix(0.24,0,0,0.24,181.9328,-86.79999)"><text
           transform="matrix(1,0,0,-1,0,2158)"
           style="font-variant:normal;font-weight:normal;font-size:112.5px;font-family:Courier;-inkscape-font-specification:Courier;writing-mode:lr-tb;fill:#d9d9d9;fill-opacity:1;fill-rule:nonzero;stroke:none"
           id="text492"><tspan
             x="0 66.667503 133.33501 200.0025 266.67001 333.33749"
             y="0"
             id="tspan490">ACGAAC</tspan></text></g><g
         id="g494"
         transform="matrix(0.24,0,0,0.24,277.9327,-86.79999)"><text
           transform="matrix(1,0,0,-1,0,2158)"
           style="font-variant:normal;font-weight:normal;font-size:112.5px;font-family:Courier;-inkscape-font-specification:Courier;writing-mode:lr-tb;fill:#548235;fill-opacity:1;fill-rule:nonzero;stroke:none"
           id="text498"><tspan
             x="0"
             y="0"
             id="tspan496">C</tspan></text></g><g
         id="g500"
         transform="matrix(0.24,0,0,0.24,293.9328,-86.79999)"><text
           transform="matrix(1,0,0,-1,0,2158)"
           style="font-variant:normal;font-weight:normal;font-size:112.5px;font-family:Courier;-inkscape-font-specification:Courier;writing-mode:lr-tb;fill:#000000;fill-opacity:1;fill-rule:nonzero;stroke:none"
           id="text504"><tspan
             x="0 66.667503"
             y="0"
             id="tspan502">GG</tspan></text></g><g
         id="g506"
         transform="matrix(0.24,0,0,0.24,325.9327,-86.79999)"><text
           transform="matrix(1,0,0,-1,0,2158)"
           style="font-variant:normal;font-weight:normal;font-size:112.5px;font-family:Courier;-inkscape-font-specification:Courier;writing-mode:lr-tb;fill:#d9d9d9;fill-opacity:1;fill-rule:nonzero;stroke:none"
           id="text510"><tspan
             x="0 66.667503 133.33501 200.0025 266.67001 333.33749"
             y="0"
             id="tspan508">GAGCGA</tspan></text></g><g
         id="g512"
         transform="matrix(7.874016e-5,0,0,-7.874016e-5,144.6614,437.8096)"><path
           d="M 0,0 449640,1"
           style="fill:none;stroke:#000000;stroke-width:22225;stroke-linecap:butt;stroke-linejoin:miter;stroke-miterlimit:8;stroke-dasharray:none;stroke-opacity:1"
           id="path514" /></g><g
         id="g516"
         transform="matrix(7.874016e-5,0,0,-7.874016e-5,423.716,437.8096)"><path
           d="M 0,0 473445,1"
           style="fill:none;stroke:#000000;stroke-width:22225;stroke-linecap:butt;stroke-linejoin:miter;stroke-miterlimit:8;stroke-dasharray:none;stroke-opacity:1"
           id="path518" /></g><g
         id="g520"
         transform="matrix(0.24,0,0,0.24,27.28283,-86.55999)"><text
           transform="matrix(1,0,0,-1,0,2158)"
           style="font-variant:normal;font-weight:normal;font-size:75px;font-family:Courier;-inkscape-font-specification:Courier;writing-mode:lr-tb;fill:#000000;fill-opacity:1;fill-rule:nonzero;stroke:none"
           id="text524"><tspan
             x="0 44.790001 89.580002 134.37 179.16 223.95 268.73999 313.53"
             y="0"
             id="tspan522">(3/3)NGG</tspan></text></g><path
         d="m 237.0424,464.2672 -7.8261,-13.4933 -7.8261,13.4933 z"
         style="fill:#ff0000;fill-opacity:1;fill-rule:nonzero;stroke:none"
         id="path526" /><g
         id="g528"
         transform="matrix(-7.874016e-5,0,0,7.874016e-5,237.0424,450.7739)"><path
           d="M 0,171365 99391.5,0 198783,171365 Z"
           style="fill:none;stroke:#ff0000;stroke-width:12700;stroke-linecap:butt;stroke-linejoin:miter;stroke-miterlimit:8;stroke-dasharray:none;stroke-opacity:1"
           id="path530" /></g><g
         id="g532"
         transform="matrix(0.24,0,0,0.24,517.3654,-86.07999)"><text
           transform="matrix(1,0,0,-1,0,2158)"
           style="font-variant:normal;font-weight:normal;font-size:75px;font-family:Calibri;-inkscape-font-specification:Calibri;writing-mode:lr-tb;fill:#000000;fill-opacity:1;fill-rule:nonzero;stroke:none"
           id="text536"><tspan
             x="0"
             y="0"
             id="tspan534">-</tspan></text></g><g
         id="g538"
         transform="matrix(0.24,0,0,0.24,522.8654,-86.07999)"><text
           transform="matrix(1,0,0,-1,0,2158)"
           style="font-variant:normal;font-weight:normal;font-size:75px;font-family:Calibri;-inkscape-font-specification:Calibri;writing-mode:lr-tb;fill:#000000;fill-opacity:1;fill-rule:nonzero;stroke:none"
           id="text542"><tspan
             x="0"
             y="0"
             id="tspan540">3</tspan></text></g></g></g></svg>
